<svg width="32" height="32" viewBox="0 0 32 32" fill="none" xmlns="http://www.w3.org/2000/svg">
  <defs>
    <linearGradient id="bagteshLogoGradient" x1="0" y1="0" x2="32" y2="32" gradientUnits="userSpaceOnUse">
      <stop stop-color="#7C3AED" />
      <stop offset="1" stop-color="#1C64F2" />
    </linearGradient>
  </defs>
  <rect width="32" height="32" rx="8" fill="url(#bagteshLogoGradient)" />
  <g transform="translate(4 4)">
    <path
      d="M21.6 18.2L13 11.75v-.91c1.65-.49 2.8-2.17 2.43-4.05-.26-1.31-1.3-2.39-2.61-2.66C10.54 3.71 8.5 5.45 8.5 7.65h2c0-.83.67-1.5 1.5-1.5s1.5.67 1.5 1.5c0 .84-.69 1.52-1.53 1.5-.54-.01-.97.45-.97.99v1.61L2.4 18.2c-.77.58-.36 1.8.6 1.8h18c.96 0 1.37-1.22.6-1.8z"
      fill="#ffffff"
    />
  </g>
</svg>
